<svg width="24" height="24" viewBox="0 0 24 24" fill="none" xmlns="http://www.w3.org/2000/svg">
<mask id="mask0_1074_9934" style="mask-type:alpha" maskUnits="userSpaceOnUse" x="0" y="0" width="24" height="24">
<rect width="24" height="24" fill="#D9D9D9"/>
</mask>
<g mask="url(#mask0_1074_9934)">
<path d="M8 22C7.71667 22 7.47917 21.9042 7.2875 21.7125C7.09583 21.5208 7 21.2833 7 21V5C7 4.71667 7.09583 4.47917 7.2875 4.2875C7.47917 4.09583 7.71667 4 8 4H10V2H14V4H16C16.2833 4 16.5208 4.09583 16.7125 4.2875C16.9042 4.47917 17 4.71667 17 5V12C15.3333 12.0167 13.9167 12.6042 12.75 13.7625C11.5833 14.9208 11 16.3333 11 18C11 18.7667 11.1333 19.4917 11.4 20.175C11.6667 20.8583 12.0417 21.4667 12.525 22H8ZM9 12H15V6H9V12ZM16.5 22V19H14L17.5 14V17H20L16.5 22Z" fill="white"/>
</g>
</svg>
