<svg width="20" height="20" viewBox="0 0 20 20" fill="none" xmlns="http://www.w3.org/2000/svg">
<mask id="mask0_983_4779" style="mask-type:alpha" maskUnits="userSpaceOnUse" x="0" y="0" width="20" height="20">
<rect width="20" height="20" fill="#D9D9D9"/>
</mask>
<g mask="url(#mask0_983_4779)">
<path d="M9.99999 4.891C10.4775 4.25531 11.04 3.76732 11.6875 3.42704C12.335 3.08676 13.0225 2.91663 13.75 2.91663C14.8814 2.91663 15.8394 3.28551 16.6242 4.02329C17.4089 4.76093 17.8354 5.69545 17.9037 6.82683C17.9037 6.86433 17.9024 6.89906 17.8998 6.931C17.8971 6.96308 17.8931 6.99781 17.8877 7.03517C17.8963 7.21253 17.8408 7.36107 17.721 7.48079C17.6014 7.60038 17.453 7.66447 17.2756 7.67308C17.0983 7.68156 16.9498 7.626 16.8302 7.50642C16.7105 7.3867 16.6464 7.23815 16.6379 7.06079C16.6432 7.02343 16.6471 6.98871 16.6498 6.95663C16.6524 6.92468 16.6537 6.88996 16.6537 6.85246C16.6025 6.07051 16.3042 5.42739 15.7587 4.92308C15.2133 4.41878 14.5437 4.16663 13.75 4.16663C13.1678 4.16663 12.6235 4.31489 12.1171 4.61142C11.6105 4.90781 11.1783 5.32899 10.8204 5.87496C10.7168 6.02663 10.5899 6.14177 10.4398 6.22038C10.2898 6.29885 10.1362 6.33808 9.97916 6.33808C9.82207 6.33808 9.672 6.29885 9.52895 6.22038C9.38575 6.14177 9.26659 6.02663 9.17145 5.87496C8.81353 5.32899 8.3827 4.90781 7.87895 4.61142C7.3752 4.31489 6.83221 4.16663 6.24999 4.16663C5.45624 4.16663 4.78666 4.41878 4.24124 4.92308C3.69582 5.42739 3.39749 6.07051 3.34624 6.85246C3.34624 6.88996 3.34756 6.92468 3.3502 6.95663C3.35284 6.98871 3.3568 7.02343 3.36207 7.06079C3.3536 7.23815 3.2895 7.3867 3.16978 7.50642C3.0502 7.626 2.90173 7.68156 2.72436 7.67308C2.547 7.66447 2.39853 7.60038 2.27895 7.48079C2.15923 7.36107 2.10367 7.21253 2.11228 7.03517C2.10686 6.99781 2.10284 6.96308 2.1002 6.931C2.09756 6.89906 2.09624 6.86433 2.09624 6.82683C2.16457 5.69545 2.5911 4.76093 3.37582 4.02329C4.16055 3.28551 5.1186 2.91663 6.24999 2.91663C6.97749 2.91663 7.66499 3.08676 8.31249 3.42704C8.95999 3.76732 9.52249 4.25531 9.99999 4.891ZM9.99999 16.7564C9.82693 16.7564 9.65784 16.723 9.4927 16.6562C9.3277 16.5894 9.1768 16.4903 9.03999 16.3589C8.58707 15.9593 8.07909 15.4893 7.51603 14.9487C6.95298 14.408 6.45193 13.9277 6.01291 13.5079C5.86652 13.3615 5.80103 13.2087 5.81645 13.0495C5.832 12.8904 5.89749 12.7531 6.01291 12.6377C6.12818 12.5224 6.26541 12.457 6.42457 12.4414C6.58388 12.426 6.73666 12.4872 6.88291 12.625C7.30499 13.0384 7.77193 13.4858 8.28374 13.967C8.79541 14.4484 9.36749 14.9733 9.99999 15.5416C10.6325 14.9733 11.2046 14.4498 11.7162 13.9712C12.228 13.4925 12.695 13.0437 13.1171 12.625C13.2633 12.4786 13.4161 12.4174 13.5754 12.4414C13.7346 12.4654 13.8718 12.5352 13.9871 12.6506C14.1025 12.766 14.1658 12.9068 14.1771 13.0729C14.1883 13.239 14.1208 13.3952 13.9744 13.5416C13.5352 13.9529 13.0328 14.4254 12.4671 14.9591C11.9014 15.4927 11.4017 15.9593 10.9679 16.3589C10.8311 16.4957 10.6802 16.5961 10.5152 16.6602C10.3502 16.7243 10.1785 16.7564 9.99999 16.7564ZM9.20832 13.125C9.34082 13.125 9.45437 13.0862 9.54895 13.0087C9.64339 12.9313 9.71305 12.8307 9.75791 12.7066L11.0192 8.91017L11.9406 10.29C12.0101 10.3904 12.0993 10.4713 12.2083 10.5329C12.3174 10.5943 12.436 10.625 12.5642 10.625H18.3333C18.5107 10.625 18.6592 10.5651 18.7787 10.4454C18.8985 10.3258 18.9583 10.1773 18.9583 9.99996C18.9583 9.8226 18.8985 9.67413 18.7787 9.55454C18.6592 9.43482 18.5107 9.37496 18.3333 9.37496H12.8429L11.3573 7.16184C11.2953 7.06892 11.2144 6.9992 11.1146 6.95267C11.0147 6.90628 10.9071 6.88308 10.7917 6.88308C10.6592 6.88308 10.5443 6.92177 10.4471 6.99913C10.3499 7.07663 10.2815 7.17732 10.2421 7.30121L8.98082 11.0929L8.05603 9.70996C7.98659 9.60954 7.89742 9.52857 7.78853 9.46704C7.6795 9.40565 7.56089 9.37496 7.4327 9.37496H1.66666C1.4893 9.37496 1.34082 9.43482 1.22124 9.55454C1.10152 9.67413 1.04166 9.8226 1.04166 9.99996C1.04166 10.1773 1.10152 10.3258 1.22124 10.4454C1.34082 10.5651 1.4893 10.625 1.66666 10.625H7.14103L8.63457 12.846C8.69652 12.9443 8.77881 13.0154 8.88145 13.0593C8.98395 13.1031 9.09291 13.125 9.20832 13.125Z" fill="#FE5555"/>
</g>
</svg>
