<svg width="184" height="206" viewBox="0 0 184 206" fill="none" xmlns="http://www.w3.org/2000/svg">
<path d="M32.4224 133.177H151.571V158.371C151.571 169.417 142.617 178.371 131.571 178.371H52.4224C41.3767 178.371 32.4224 169.417 32.4224 158.371V133.177Z" fill="url(#paint0_linear_1446_5996)"/>
<path d="M32.4224 132.492H151.571V31.289C151.571 20.2433 142.617 11.2889 131.571 11.2889H52.4224C41.3767 11.2889 32.4224 20.2433 32.4224 31.2889V132.492Z" fill="#EFF8E2"/>
<path d="M150.779 132.919V122.178C150.424 122.329 150.007 122.503 149.536 122.697C147.883 123.379 145.565 124.3 142.904 125.259C137.604 127.167 130.866 129.251 125.307 129.847C113.893 131.072 104.163 128.912 94.6045 126.832C85.0228 124.746 75.6073 122.739 64.5831 124.065C56.9176 124.987 49.5384 126.018 43.8067 127.006C40.9393 127.5 38.4971 127.98 36.6426 128.428C35.7148 128.653 34.9472 128.866 34.3536 129.064C34.058 129.163 33.824 129.254 33.6426 129.332L33.5049 132.919H150.779Z" fill="url(#paint1_linear_1446_5996)" stroke="url(#paint2_linear_1446_5996)" stroke-width="2" stroke-linecap="round"/>
<rect x="32.7159" y="10.7576" width="118.814" height="167.624" rx="19.75" stroke="#272727" stroke-width="0.5"/>
<g filter="url(#filter0_d_1446_5996)">
<path d="M89.9525 147.176L91.0372 139.583H85.6139L95.3759 125.482H97.5452L96.4606 134.16H102.969L92.1219 147.176H89.9525Z" fill="white"/>
<path d="M97.2623 125.732L96.2125 134.129L96.1773 134.41H102.435L92.0055 146.926H90.2408L91.2848 139.618L91.3258 139.333H86.0904L95.5074 125.732H97.2623Z" stroke="#D5D5D5" stroke-width="0.5"/>
</g>
<path d="M82.022 4.25H102.766C104.837 4.25021 106.516 5.92906 106.516 8V10.8008H78.272V8C78.272 5.92893 79.9509 4.25 82.022 4.25Z" fill="#EFF8E2" stroke="#EFF8E2" stroke-width="0.5" stroke-linecap="round"/>
<ellipse cx="92.1237" cy="196.529" rx="54.2335" ry="4.88101" fill="#D5D5D5" fill-opacity="0.2"/>
<circle cx="66.0914" cy="56.0642" r="10.8467" fill="#272727"/>
<circle cx="121.41" cy="56.0642" r="10.8467" fill="#272727"/>
<circle cx="123.578" cy="53.8947" r="2.16934" fill="white"/>
<circle cx="68.2612" cy="53.8947" r="2.16934" fill="white"/>
<path d="M81.2767 76.6731C90.267 82.5205 94.1364 82.7839 102.97 76.6731" stroke="#272727" stroke-linecap="round"/>
<path d="M71.5145 36.5197C65.5488 34.3503 64.1402 32.2552 55.2444 38.6274" stroke="#272727" stroke-linecap="round"/>
<path d="M115.986 38.6892C121.952 36.5199 124.445 34.4249 133.341 40.7971" stroke="#272727" stroke-linecap="round"/>
<path d="M31.6562 93.6738C30.9478 94.1993 29.9328 94.9631 28.707 95.915C26.2549 97.8193 22.9604 100.477 19.5918 103.488C16.2225 106.501 12.783 109.864 10.0371 113.181C7.28529 116.504 5.25408 119.753 4.66307 122.538C4.32274 124.142 3.94863 126.085 4.65721 128.379C5.02707 129.576 5.46188 130.277 5.92674 130.63C6.37202 130.968 6.88055 131.013 7.49022 130.804C8.11289 130.59 8.81947 130.115 9.60936 129.443C10.3958 128.775 11.2457 127.927 12.1582 126.987C13.9773 125.113 16.0386 122.873 18.2734 121.024C20.5072 119.177 22.9471 117.693 25.5381 117.357C26.9241 117.178 28.7034 117.179 30.1269 117.224C30.8405 117.246 31.4685 117.279 31.918 117.307C32.0998 117.318 32.2526 117.328 32.3701 117.336V93.1484C32.189 93.2807 31.9486 93.457 31.6562 93.6738Z" fill="url(#paint3_linear_1446_5996)"/>
<path d="M31.6562 93.6738C30.9478 94.1993 29.9328 94.9631 28.707 95.915C26.2549 97.8193 22.9604 100.477 19.5918 103.488C16.2225 106.501 12.783 109.864 10.0371 113.181C7.28529 116.504 5.25408 119.753 4.66307 122.538C4.32274 124.142 3.94863 126.085 4.65721 128.379C5.02707 129.576 5.46188 130.277 5.92674 130.63C6.37202 130.968 6.88055 131.013 7.49022 130.804C8.11289 130.59 8.81947 130.115 9.60936 129.443C10.3958 128.775 11.2457 127.927 12.1582 126.987C13.9773 125.113 16.0386 122.873 18.2734 121.024C20.5072 119.177 22.9471 117.693 25.5381 117.357C26.9241 117.178 28.7034 117.179 30.1269 117.224C30.8405 117.246 31.4685 117.279 31.918 117.307C32.0998 117.318 32.2526 117.328 32.3701 117.336V93.1484C32.189 93.2807 31.9486 93.457 31.6562 93.6738Z" fill="black" fill-opacity="0.2"/>
<path d="M31.6562 93.6738C30.9478 94.1993 29.9328 94.9631 28.707 95.915C26.2549 97.8193 22.9604 100.477 19.5918 103.488C16.2225 106.501 12.783 109.864 10.0371 113.181C7.28529 116.504 5.25408 119.753 4.66307 122.538C4.32274 124.142 3.94863 126.085 4.65721 128.379C5.02707 129.576 5.46188 130.277 5.92674 130.63C6.37202 130.968 6.88055 131.013 7.49022 130.804C8.11289 130.59 8.81947 130.115 9.60936 129.443C10.3958 128.775 11.2457 127.927 12.1582 126.987C13.9773 125.113 16.0386 122.873 18.2734 121.024C20.5072 119.177 22.9471 117.693 25.5381 117.357C26.9241 117.178 28.7034 117.179 30.1269 117.224C30.8405 117.246 31.4685 117.279 31.918 117.307C32.0998 117.318 32.2526 117.328 32.3701 117.336V93.1484C32.189 93.2807 31.9486 93.457 31.6562 93.6738Z" stroke="#272727" stroke-width="0.5" stroke-linecap="round"/>
<path d="M152.344 86.366C153.053 86.8915 154.068 87.6552 155.293 88.6072C157.745 90.5115 161.04 93.1686 164.409 96.1804C167.778 99.1929 171.217 102.556 173.963 105.873C176.715 109.197 178.746 112.445 179.337 115.23C179.678 116.834 180.052 118.777 179.343 121.071C178.973 122.268 178.538 122.969 178.074 123.322C177.628 123.66 177.12 123.706 176.51 123.496C175.887 123.282 175.181 122.807 174.391 122.135C173.605 121.467 172.755 120.62 171.842 119.679C170.023 117.805 167.962 115.565 165.727 113.717C163.493 111.869 161.053 110.385 158.462 110.05C157.076 109.87 155.297 109.872 153.873 109.916C153.16 109.938 152.532 109.971 152.082 109.999C151.901 110.01 151.748 110.02 151.63 110.028V85.8406C151.811 85.9728 152.052 86.1491 152.344 86.366Z" fill="url(#paint4_linear_1446_5996)"/>
<path d="M152.344 86.366C153.053 86.8915 154.068 87.6552 155.293 88.6072C157.745 90.5115 161.04 93.1686 164.409 96.1804C167.778 99.1929 171.217 102.556 173.963 105.873C176.715 109.197 178.746 112.445 179.337 115.23C179.678 116.834 180.052 118.777 179.343 121.071C178.973 122.268 178.538 122.969 178.074 123.322C177.628 123.66 177.12 123.706 176.51 123.496C175.887 123.282 175.181 122.807 174.391 122.135C173.605 121.467 172.755 120.62 171.842 119.679C170.023 117.805 167.962 115.565 165.727 113.717C163.493 111.869 161.053 110.385 158.462 110.05C157.076 109.87 155.297 109.872 153.873 109.916C153.16 109.938 152.532 109.971 152.082 109.999C151.901 110.01 151.748 110.02 151.63 110.028V85.8406C151.811 85.9728 152.052 86.1491 152.344 86.366Z" fill="black" fill-opacity="0.2"/>
<path d="M152.344 86.366C153.053 86.8915 154.068 87.6552 155.293 88.6072C157.745 90.5115 161.04 93.1686 164.409 96.1804C167.778 99.1929 171.217 102.556 173.963 105.873C176.715 109.197 178.746 112.445 179.337 115.23C179.678 116.834 180.052 118.777 179.343 121.071C178.973 122.268 178.538 122.969 178.074 123.322C177.628 123.66 177.12 123.706 176.51 123.496C175.887 123.282 175.181 122.807 174.391 122.135C173.605 121.467 172.755 120.62 171.842 119.679C170.023 117.805 167.962 115.565 165.727 113.717C163.493 111.869 161.053 110.385 158.462 110.05C157.076 109.87 155.297 109.872 153.873 109.916C153.16 109.938 152.532 109.971 152.082 109.999C151.901 110.01 151.748 110.02 151.63 110.028V85.8406C151.811 85.9728 152.052 86.1491 152.344 86.366Z" stroke="#272727" stroke-width="0.5" stroke-linecap="round"/>
<mask id="path-19-inside-1_1446_5996" fill="white">
<path d="M76.9371 188.394H76.8668C76.3331 192.674 72.6844 195.987 68.2594 195.987C63.8345 195.986 60.1856 192.674 59.652 188.394H59.5826V177.547H76.9371V188.394Z"/>
</mask>
<path d="M76.9371 188.394H76.8668C76.3331 192.674 72.6844 195.987 68.2594 195.987C63.8345 195.986 60.1856 192.674 59.652 188.394H59.5826V177.547H76.9371V188.394Z" fill="url(#paint5_linear_1446_5996)"/>
<path d="M76.9371 188.394H76.8668C76.3331 192.674 72.6844 195.987 68.2594 195.987C63.8345 195.986 60.1856 192.674 59.652 188.394H59.5826V177.547H76.9371V188.394Z" fill="black" fill-opacity="0.2"/>
<path d="M76.9371 188.394H76.8668C76.3331 192.674 72.6844 195.987 68.2594 195.987C63.8345 195.986 60.1856 192.674 59.652 188.394H59.5826V177.547H76.9371V188.394Z" fill="black" fill-opacity="0.1"/>
<path d="M76.9371 188.394V188.894H77.4371V188.394H76.9371ZM76.8668 188.394V187.894H76.4253L76.3706 188.332L76.8668 188.394ZM68.2594 195.987L68.2594 196.487H68.2594V195.987ZM59.652 188.394L60.1481 188.332L60.0935 187.894H59.652V188.394ZM59.5826 188.394H59.0826V188.894H59.5826V188.394ZM59.5826 177.547V177.047H59.0826V177.547H59.5826ZM76.9371 177.547H77.4371V177.047H76.9371V177.547ZM76.9371 188.394V187.894H76.8668V188.394V188.894H76.9371V188.394ZM76.8668 188.394L76.3706 188.332C75.8677 192.365 72.4289 195.487 68.2594 195.487V195.987V196.487C72.94 196.487 76.7985 192.983 77.363 188.456L76.8668 188.394ZM68.2594 195.987L68.2594 195.487C64.09 195.486 60.651 192.365 60.1481 188.332L59.652 188.394L59.1558 188.456C59.7202 192.983 63.579 196.486 68.2594 196.487L68.2594 195.987ZM59.652 188.394V187.894H59.5826V188.394V188.894H59.652V188.394ZM59.5826 188.394H60.0826V177.547H59.5826H59.0826V188.394H59.5826ZM59.5826 177.547V178.047H76.9371V177.547V177.047H59.5826V177.547ZM76.9371 177.547H76.4371V188.394H76.9371H77.4371V177.547H76.9371Z" fill="#272727" mask="url(#path-19-inside-1_1446_5996)"/>
<mask id="path-21-inside-2_1446_5996" fill="white">
<path d="M125.748 188.394H125.678C125.144 192.674 121.495 195.987 117.07 195.987C112.646 195.986 108.997 192.674 108.463 188.394H108.394V177.547H125.748V188.394Z"/>
</mask>
<path d="M125.748 188.394H125.678C125.144 192.674 121.495 195.987 117.07 195.987C112.646 195.986 108.997 192.674 108.463 188.394H108.394V177.547H125.748V188.394Z" fill="url(#paint6_linear_1446_5996)"/>
<path d="M125.748 188.394H125.678C125.144 192.674 121.495 195.987 117.07 195.987C112.646 195.986 108.997 192.674 108.463 188.394H108.394V177.547H125.748V188.394Z" fill="black" fill-opacity="0.2"/>
<path d="M125.748 188.394H125.678C125.144 192.674 121.495 195.987 117.07 195.987C112.646 195.986 108.997 192.674 108.463 188.394H108.394V177.547H125.748V188.394Z" fill="black" fill-opacity="0.1"/>
<path d="M125.748 188.394V188.894H126.248V188.394H125.748ZM125.678 188.394V187.894H125.236L125.182 188.332L125.678 188.394ZM117.07 195.987L117.07 196.487H117.07V195.987ZM108.463 188.394L108.959 188.332L108.905 187.894H108.463V188.394ZM108.394 188.394H107.894V188.894H108.394V188.394ZM108.394 177.547V177.047H107.894V177.547H108.394ZM125.748 177.547H126.248V177.047H125.748V177.547ZM125.748 188.394V187.894H125.678V188.394V188.894H125.748V188.394ZM125.678 188.394L125.182 188.332C124.679 192.365 121.24 195.487 117.07 195.487V195.987V196.487C121.751 196.487 125.61 192.983 126.174 188.456L125.678 188.394ZM117.07 195.987L117.07 195.487C112.901 195.486 109.462 192.365 108.959 188.332L108.463 188.394L107.967 188.456C108.531 192.983 112.39 196.486 117.07 196.487L117.07 195.987ZM108.463 188.394V187.894H108.394V188.394V188.894H108.463V188.394ZM108.394 188.394H108.894V177.547H108.394H107.894V188.394H108.394ZM108.394 177.547V178.047H125.748V177.547V177.047H108.394V177.547ZM125.748 177.547H125.248V188.394H125.748H126.248V177.547H125.748Z" fill="#272727" mask="url(#path-21-inside-2_1446_5996)"/>
<defs>
<filter id="filter0_d_1446_5996" x="81.6139" y="125.482" width="25.3547" height="29.6934" filterUnits="userSpaceOnUse" color-interpolation-filters="sRGB">
<feFlood flood-opacity="0" result="BackgroundImageFix"/>
<feColorMatrix in="SourceAlpha" type="matrix" values="0 0 0 0 0 0 0 0 0 0 0 0 0 0 0 0 0 0 127 0" result="hardAlpha"/>
<feOffset dy="4"/>
<feGaussianBlur stdDeviation="2"/>
<feComposite in2="hardAlpha" operator="out"/>
<feColorMatrix type="matrix" values="0 0 0 0 0 0 0 0 0 0.572549 0 0 0 0 0.270588 0 0 0 1 0"/>
<feBlend mode="normal" in2="BackgroundImageFix" result="effect1_dropShadow_1446_5996"/>
<feBlend mode="normal" in="SourceGraphic" in2="effect1_dropShadow_1446_5996" result="shape"/>
</filter>
<linearGradient id="paint0_linear_1446_5996" x1="151.571" y1="140.521" x2="120.605" y2="203.337" gradientUnits="userSpaceOnUse">
<stop stop-color="#FCEE21"/>
<stop offset="0.974288" stop-color="#009245"/>
</linearGradient>
<linearGradient id="paint1_linear_1446_5996" x1="151.78" y1="131.764" x2="148.537" y2="109.318" gradientUnits="userSpaceOnUse">
<stop stop-color="#FCEE21"/>
<stop offset="0.974288" stop-color="#009245"/>
</linearGradient>
<linearGradient id="paint2_linear_1446_5996" x1="151.78" y1="131.764" x2="148.537" y2="109.318" gradientUnits="userSpaceOnUse">
<stop stop-color="#FCEE21"/>
<stop offset="0.974288" stop-color="#009245"/>
</linearGradient>
<linearGradient id="paint3_linear_1446_5996" x1="4.00494" y1="98.918" x2="32.6779" y2="115.307" gradientUnits="userSpaceOnUse">
<stop stop-color="#FCEE21"/>
<stop offset="0.974288" stop-color="#009245"/>
</linearGradient>
<linearGradient id="paint4_linear_1446_5996" x1="179.995" y1="91.6102" x2="151.322" y2="107.999" gradientUnits="userSpaceOnUse">
<stop stop-color="#FCEE21"/>
<stop offset="0.974288" stop-color="#009245"/>
</linearGradient>
<linearGradient id="paint5_linear_1446_5996" x1="76.9371" y1="180.544" x2="61.8033" y2="191.503" gradientUnits="userSpaceOnUse">
<stop stop-color="#FCEE21"/>
<stop offset="0.974288" stop-color="#009245"/>
</linearGradient>
<linearGradient id="paint6_linear_1446_5996" x1="125.748" y1="180.544" x2="110.614" y2="191.503" gradientUnits="userSpaceOnUse">
<stop stop-color="#FCEE21"/>
<stop offset="0.974288" stop-color="#009245"/>
</linearGradient>
</defs>
</svg>
