<svg width="20" height="24" viewBox="0 0 20 24" fill="none" xmlns="http://www.w3.org/2000/svg">
<path fill-rule="evenodd" clip-rule="evenodd" d="M7.93381 4.64094C7.93381 3.83522 8.15667 3.35694 8.43438 3.08094C8.7121 2.80151 9.18867 2.57865 9.9961 2.57865C10.8018 2.57865 11.2818 2.80151 11.5578 3.07922C11.8338 3.35694 12.0584 3.83351 12.0584 4.63923C12.0584 5.44494 11.8355 5.92151 11.5578 6.19923C11.2801 6.47694 10.8035 6.6998 9.9961 6.6998C9.19038 6.6998 8.71038 6.47694 8.43438 6.19923C8.15838 5.92151 7.93381 5.44665 7.93381 4.64094ZM9.9961 0.434082C8.7961 0.434082 7.70753 0.775225 6.91895 1.56208C6.13038 2.35065 5.79095 3.43751 5.79095 4.63751C5.79095 5.83751 6.13038 6.92608 6.91895 7.71294C7.70753 8.4998 8.7961 8.84094 9.9961 8.84094C11.1961 8.84094 12.2847 8.50151 13.0732 7.71294C13.8618 6.92608 14.2012 5.83751 14.2012 4.63751C14.2012 3.43751 13.8618 2.35065 13.0732 1.5638C12.2847 0.776939 11.1961 0.435796 9.9961 0.435796M9.99953 11.8461C9.11838 11.0489 8.02295 10.2415 6.84181 9.79237C6.0961 9.50951 5.28181 9.35694 4.44867 9.46665C3.60353 9.5798 2.7961 9.95694 2.06924 10.6461C0.828097 11.8238 0.52124 13.3135 0.790382 14.7895C1.05267 16.2244 1.85495 17.6644 2.84753 18.9329C3.84587 20.1962 5.01075 21.3184 6.31038 22.2689C7.51381 23.1432 8.78924 23.8118 9.85896 23.9884C9.95203 24.0038 10.047 24.0038 10.1401 23.9884C11.2115 23.8118 12.487 23.1415 13.6887 22.2689C14.9127 21.3792 16.1521 20.2118 17.1515 18.9329C18.1458 17.6644 18.9464 16.2244 19.2087 14.7895C19.4795 13.3135 19.1727 11.8238 17.9298 10.6461C17.2047 9.95694 16.3955 9.5798 15.5504 9.46665C14.7172 9.35694 13.9047 9.50951 13.159 9.79237C11.9761 10.2415 10.8824 11.0489 9.99953 11.8461Z" fill="#FE5555"/>
</svg>
