<svg width="20" height="24" viewBox="0 0 20 24" fill="none" xmlns="http://www.w3.org/2000/svg">
<path fill-rule="evenodd" clip-rule="evenodd" d="M7.93384 4.64094C7.93384 3.83522 8.1567 3.35694 8.43441 3.08094C8.71213 2.80151 9.1887 2.57865 9.99613 2.57865C10.8018 2.57865 11.2818 2.80151 11.5578 3.07922C11.8338 3.35694 12.0584 3.83351 12.0584 4.63923C12.0584 5.44494 11.8356 5.92151 11.5578 6.19923C11.2801 6.47694 10.8036 6.6998 9.99613 6.6998C9.19041 6.6998 8.71041 6.47694 8.43441 6.19923C8.15841 5.92151 7.93384 5.44665 7.93384 4.64094ZM9.99613 0.434082C8.79613 0.434082 7.70756 0.775225 6.91898 1.56208C6.13041 2.35065 5.79099 3.43751 5.79099 4.63751C5.79099 5.83751 6.13041 6.92608 6.91898 7.71294C7.70756 8.4998 8.79613 8.84094 9.99613 8.84094C11.1961 8.84094 12.2847 8.50151 13.0733 7.71294C13.8618 6.92608 14.2013 5.83751 14.2013 4.63751C14.2013 3.43751 13.8618 2.35065 13.0733 1.5638C12.2847 0.776939 11.1961 0.435796 9.99613 0.435796M9.99956 11.8461C9.11841 11.0489 8.02298 10.2415 6.84184 9.79237C6.09613 9.50951 5.28184 9.35694 4.4487 9.46665C3.60356 9.5798 2.79613 9.95694 2.06927 10.6461C0.828127 11.8238 0.52127 13.3135 0.790413 14.7895C1.0527 16.2244 1.85498 17.6644 2.84756 18.9329C3.84591 20.1962 5.01078 21.3184 6.31041 22.2689C7.51384 23.1432 8.78927 23.8118 9.85899 23.9884C9.95206 24.0038 10.0471 24.0038 10.1401 23.9884C11.2116 23.8118 12.487 23.1415 13.6887 22.2689C14.9127 21.3792 16.1521 20.2118 17.1516 18.9329C18.1458 17.6644 18.9464 16.2244 19.2087 14.7895C19.4796 13.3135 19.1727 11.8238 17.9298 10.6461C17.2047 9.95694 16.3956 9.5798 15.5504 9.46665C14.7173 9.35694 13.9047 9.50951 13.159 9.79237C11.9761 10.2415 10.8824 11.0489 9.99956 11.8461Z" fill="url(#paint0_linear_1509_6662)"/>
<defs>
<linearGradient id="paint0_linear_1509_6662" x1="19.2998" y1="4.26354" x2="1.2361" y2="15.2336" gradientUnits="userSpaceOnUse">
<stop stop-color="#FCEE21"/>
<stop offset="0.974288" stop-color="#009245"/>
</linearGradient>
</defs>
</svg>
