<svg width="38" height="38" viewBox="0 0 38 38" fill="none" xmlns="http://www.w3.org/2000/svg">
<mask id="mask0_1074_9153" style="mask-type:alpha" maskUnits="userSpaceOnUse" x="0" y="0" width="38" height="38">
<rect width="38" height="38" fill="#D9D9D9"/>
</mask>
<g mask="url(#mask0_1074_9153)">
<path d="M8.31253 29.9005C7.97607 29.9005 7.6941 29.7868 7.46663 29.5593C7.2389 29.3316 7.12503 29.0493 7.12503 28.7126C7.12503 28.3762 7.2389 28.0942 7.46663 27.8667C7.6941 27.6395 7.97607 27.5259 8.31253 27.5259H9.9873V15.7115C9.9873 13.5821 10.6445 11.6994 11.9589 10.0633C13.2731 8.4272 14.9604 7.38075 17.0209 6.92396V5.93754C17.0209 5.38786 17.2131 4.92051 17.5976 4.5355C17.9821 4.15075 18.4489 3.95837 18.998 3.95837C19.5475 3.95837 20.0149 4.15075 20.4005 4.5355C20.7863 4.92051 20.9792 5.38786 20.9792 5.93754V6.92396C23.0396 7.38075 24.7269 8.4272 26.0411 10.0633C27.3555 11.6994 28.0128 13.5821 28.0128 15.7115V27.5259H29.6875C30.024 27.5259 30.306 27.6396 30.5334 27.8671C30.7612 28.0948 30.875 28.3771 30.875 28.7138C30.875 29.0503 30.7612 29.3322 30.5334 29.5597C30.306 29.7869 30.024 29.9005 29.6875 29.9005H8.31253ZM18.9973 34.3461C18.2095 34.3461 17.5361 34.0659 16.9769 33.5054C16.4175 32.9449 16.1378 32.271 16.1378 31.4838H21.8623C21.8623 32.2737 21.5818 32.9482 21.0208 33.5073C20.4597 34.0665 19.7852 34.3461 18.9973 34.3461ZM12.3623 27.5259H25.6378V15.7115C25.6378 13.8785 24.9898 12.314 23.6938 11.0181C22.3976 9.72184 20.833 9.07373 19 9.07373C17.1671 9.07373 15.6025 9.72184 14.3062 11.0181C13.0103 12.314 12.3623 13.8785 12.3623 15.7115V27.5259ZM5.33626 15.6964C4.99426 15.6964 4.70952 15.568 4.48205 15.3113C4.25484 15.0545 4.15747 14.7525 4.18992 14.4052C4.3501 12.5783 4.82299 10.8671 5.60859 9.27165C6.39419 7.67617 7.41016 6.27558 8.65651 5.06987C8.91855 4.84056 9.21397 4.72629 9.54278 4.72708C9.87158 4.72814 10.1425 4.86523 10.3554 5.13835C10.5686 5.41148 10.659 5.70835 10.6266 6.02898C10.5941 6.3496 10.447 6.63276 10.1852 6.87844C9.19669 7.86485 8.39275 9.00208 7.7734 10.2901C7.15432 11.5782 6.76469 12.9641 6.60451 14.448C6.56176 14.795 6.42519 15.0899 6.19482 15.3326C5.96444 15.5752 5.67826 15.6964 5.33626 15.6964ZM32.6713 15.6964C32.3243 15.6964 32.0356 15.5752 31.8052 15.3326C31.5749 15.0899 31.4383 14.795 31.3956 14.448C31.2354 12.9641 30.8482 11.5807 30.2342 10.2976C29.6201 9.01488 28.8188 7.88016 27.8303 6.89348C27.5648 6.64885 27.4116 6.36346 27.3707 6.03729C27.3298 5.71113 27.416 5.41148 27.6292 5.13835C27.8424 4.86523 28.1159 4.73078 28.4498 4.735C28.7836 4.73896 29.0815 4.8556 29.3436 5.08492C30.5899 6.29089 31.6059 7.68897 32.3915 9.27917C33.1771 10.8696 33.65 12.5783 33.8101 14.4052C33.8426 14.7525 33.7451 15.0545 33.5176 15.3113C33.2899 15.568 33.0078 15.6964 32.6713 15.6964Z" fill="white"/>
</g>
</svg>
