<svg width="25" height="24" viewBox="0 0 25 24" fill="none" xmlns="http://www.w3.org/2000/svg">
<mask id="mask0_1454_688" style="mask-type:alpha" maskUnits="userSpaceOnUse" x="0" y="0" width="25" height="24">
<rect x="0.5" width="24" height="24" fill="#D9D9D9"/>
</mask>
<g mask="url(#mask0_1454_688)">
<path d="M6.80775 20H18.1923C18.2821 20 18.3558 19.9712 18.4135 19.9135C18.4712 19.8558 18.5 19.7821 18.5 19.6923V10.3077C18.5 10.2179 18.4712 10.1442 18.4135 10.0865C18.3558 10.0288 18.2821 10 18.1923 10H6.80775C6.71792 10 6.64417 10.0288 6.5865 10.0865C6.52883 10.1442 6.5 10.2179 6.5 10.3077V19.6923C6.5 19.7821 6.52883 19.8558 6.5865 19.9135C6.64417 19.9712 6.71792 20 6.80775 20ZM12.5 16.75C12.9858 16.75 13.399 16.5798 13.7395 16.2395C14.0798 15.899 14.25 15.4858 14.25 15C14.25 14.5142 14.0798 14.101 13.7395 13.7605C13.399 13.4202 12.9858 13.25 12.5 13.25C12.0142 13.25 11.601 13.4202 11.2605 13.7605C10.9202 14.101 10.75 14.5142 10.75 15C10.75 15.4858 10.9202 15.899 11.2605 16.2395C11.601 16.5798 12.0142 16.75 12.5 16.75ZM6.80775 21.5C6.30908 21.5 5.88308 21.3234 5.52975 20.9703C5.17658 20.6169 5 20.1909 5 19.6923V10.3077C5 9.80908 5.17658 9.38308 5.52975 9.02975C5.88308 8.67658 6.30908 8.5 6.80775 8.5H14V6.5C14 5.25133 14.4378 4.18917 15.3135 3.3135C16.1892 2.43783 17.2513 2 18.5 2C19.6063 2 20.5643 2.3455 21.374 3.0365C22.1837 3.72767 22.6917 4.586 22.898 5.6115C22.9557 5.82433 22.9128 6.02567 22.7693 6.2155C22.6256 6.40517 22.4525 6.5 22.25 6.5C22.0372 6.5 21.8615 6.45133 21.723 6.354C21.5847 6.2565 21.4866 6.1065 21.4288 5.904C21.2839 5.22567 20.9426 4.65542 20.4047 4.19325C19.8669 3.73108 19.232 3.5 18.5 3.5C17.6667 3.5 16.9583 3.79167 16.375 4.375C15.7917 4.95833 15.5 5.66667 15.5 6.5V8.5H18.1923C18.6909 8.5 19.1169 8.67658 19.4703 9.02975C19.8234 9.38308 20 9.80908 20 10.3077V19.6923C20 20.1909 19.8234 20.6169 19.4703 20.9703C19.1169 21.3234 18.6909 21.5 18.1923 21.5H6.80775Z" fill="white"/>
</g>
</svg>
