<svg width="20" height="20" viewBox="0 0 20 20" fill="none" xmlns="http://www.w3.org/2000/svg">
<mask id="mask0_983_4785" style="mask-type:alpha" maskUnits="userSpaceOnUse" x="0" y="0" width="20" height="20">
<rect width="20" height="20" fill="#D9D9D9"/>
</mask>
<g mask="url(#mask0_983_4785)">
<path d="M10.8125 15.016L7.9344 12.1376C7.85634 12.0597 7.79919 11.9754 7.76294 11.8845C7.72655 11.7937 7.70835 11.6981 7.70835 11.5976V8.17307C7.70835 7.9957 7.76821 7.84716 7.88794 7.72744C8.00752 7.60786 8.15599 7.54807 8.33335 7.54807C8.51071 7.54807 8.65919 7.60786 8.77877 7.72744C8.89849 7.84716 8.95835 7.9957 8.95835 8.17307V11.4214L11.6827 14.1458C11.7981 14.2612 11.8559 14.4063 11.8559 14.581C11.8559 14.7556 11.7981 14.9006 11.6827 15.016C11.5673 15.1314 11.4223 15.1891 11.2477 15.1891C11.073 15.1891 10.9279 15.1314 10.8125 15.016ZM18.7565 9.55765C18.5737 9.5939 18.4134 9.55598 18.2756 9.4439C18.1379 9.33168 18.0422 9.18154 17.9888 8.99348C17.5454 7.38668 16.7591 5.98202 15.6298 4.77952C14.5005 3.57716 13.1522 2.7105 11.585 2.17952C11.4054 2.12605 11.2695 2.02397 11.1771 1.87327C11.0847 1.72272 11.061 1.56036 11.1059 1.38619C11.1592 1.20355 11.2729 1.07959 11.4471 1.01432C11.6213 0.949176 11.8024 0.94758 11.9904 1.00952C13.766 1.61647 15.2916 2.60286 16.5673 3.96869C17.843 5.33466 18.7265 6.92945 19.2179 8.75307C19.2714 8.94112 19.2535 9.11313 19.1642 9.26911C19.075 9.42508 18.9391 9.52126 18.7565 9.55765ZM15.3044 9.50307C15.1356 9.54793 14.9759 9.5282 14.8252 9.4439C14.6747 9.35945 14.5657 9.23286 14.4984 9.06411C14.2046 8.36313 13.8013 7.73306 13.2886 7.1739C12.7756 6.61459 12.1843 6.15279 11.5144 5.78848C11.3627 5.70404 11.2532 5.57952 11.1859 5.41494C11.1186 5.2505 11.1186 5.08813 11.1859 4.92786C11.2532 4.75911 11.3718 4.64772 11.5417 4.59369C11.7115 4.5398 11.8766 4.55501 12.0369 4.63932C12.8734 5.08279 13.6031 5.65334 14.2259 6.35098C14.8488 7.04862 15.3381 7.83543 15.694 8.7114C15.7612 8.88029 15.7575 9.0432 15.6827 9.20015C15.6079 9.35723 15.4818 9.4582 15.3044 9.50307ZM8.35419 19.5833C7.26016 19.5833 6.23023 19.3752 5.2644 18.9591C4.29856 18.543 3.45724 17.9765 2.74044 17.2595C2.02349 16.5427 1.45696 15.7027 1.04085 14.7395C0.624743 13.7763 0.416687 12.752 0.416687 11.6666C0.416687 10.5726 0.624743 9.54265 1.04085 8.57682C1.45696 7.61098 2.02349 6.76966 2.74044 6.05286C3.45724 5.33591 4.29856 4.76939 5.2644 4.35327C6.23023 3.93716 7.26016 3.72911 8.35419 3.72911C8.53155 3.72911 8.68002 3.78897 8.7996 3.90869C8.91933 4.02827 8.97919 4.17675 8.97919 4.35411C8.97919 4.53147 8.91933 4.67994 8.7996 4.79952C8.68002 4.91925 8.53155 4.97911 8.35419 4.97911C6.49308 4.97911 4.91321 5.62841 3.6146 6.92702C2.31599 8.22563 1.66669 9.8055 1.66669 11.6666C1.66669 13.5138 2.31599 15.0867 3.6146 16.3854C4.91321 17.684 6.49308 18.3333 8.35419 18.3333C10.2014 18.3333 11.7743 17.684 13.0729 16.3854C14.3715 15.0867 15.0209 13.5138 15.0209 11.6666C15.0209 11.4892 15.0807 11.3408 15.2004 11.2212C15.32 11.1015 15.4685 11.0416 15.6459 11.0416C15.8232 11.0416 15.9717 11.1015 16.0913 11.2212C16.211 11.3408 16.2709 11.4892 16.2709 11.6666C16.2709 12.752 16.0628 13.7763 15.6467 14.7395C15.2306 15.7027 14.664 16.5427 13.9471 17.2595C13.2303 17.9765 12.3925 18.543 11.4336 18.9591C10.4747 19.3752 9.44822 19.5833 8.35419 19.5833Z" fill="#009245"/>
</g>
</svg>
