<svg width="32" height="33" viewBox="0 0 32 33" fill="none" xmlns="http://www.w3.org/2000/svg">
<mask id="mask0_1402_1925" style="mask-type:alpha" maskUnits="userSpaceOnUse" x="0" y="0" width="32" height="33">
<rect y="0.975098" width="32" height="32" fill="#D9D9D9"/>
</mask>
<g mask="url(#mask0_1402_1925)">
<path d="M11.1282 29.6418C10.7866 29.6418 10.5004 29.5262 10.2695 29.2951C10.0384 29.0642 9.92285 28.778 9.92285 28.4365V7.83414C9.92285 7.49258 10.0384 7.20636 10.2695 6.97547C10.5004 6.74458 10.7866 6.62914 11.1282 6.62914H13.5382V5.5138C13.5382 5.17225 13.6537 4.88603 13.8849 4.65514C14.1157 4.42403 14.402 4.30847 14.7435 4.30847H17.2562C17.5977 4.30847 17.884 4.42403 18.1149 4.65514C18.346 4.88603 18.4615 5.17225 18.4615 5.5138V6.62914H20.8742C21.216 6.62914 21.5019 6.74458 21.7319 6.97547C21.9619 7.20636 22.0769 7.49258 22.0769 7.83414V16.0135C22.0769 16.2968 21.981 16.5344 21.7892 16.7261C21.5974 16.9177 21.3597 17.0135 21.0762 17.0135C20.7929 17.0135 20.5554 16.9177 20.3639 16.7261C20.1725 16.5344 20.0769 16.2968 20.0769 16.0135V8.61614H11.9229V24.9368H13.7615C14.0333 24.9368 14.2606 25.0269 14.4435 25.2071C14.6264 25.3876 14.7357 25.6205 14.7715 25.9058C14.8297 26.3178 14.9142 26.7141 15.0249 27.0948C15.1355 27.4755 15.2759 27.8467 15.4459 28.2085C15.5981 28.552 15.5874 28.8768 15.4139 29.1828C15.2403 29.4888 14.9817 29.6418 14.6382 29.6418H11.1282ZM22.0512 26.2058H20.4462C20.2135 26.2058 20.0404 26.1041 19.9269 25.9008C19.8131 25.6975 19.8212 25.4932 19.9512 25.2881L22.7349 20.8905C22.8277 20.7674 22.9422 20.7238 23.0782 20.7598C23.214 20.7956 23.2819 20.8949 23.2819 21.0578V23.7445H24.8869C25.1195 23.7445 25.2926 23.8461 25.4062 24.0495C25.52 24.2528 25.5119 24.457 25.3819 24.6621L22.5982 29.0598C22.5053 29.1829 22.3909 29.2265 22.2549 29.1905C22.1191 29.1547 22.0512 29.0554 22.0512 28.8925V26.2058Z" fill="white"/>
</g>
</svg>
