<svg width="24" height="24" viewBox="0 0 24 24" fill="none" xmlns="http://www.w3.org/2000/svg">
<mask id="mask0_1074_9237" style="mask-type:alpha" maskUnits="userSpaceOnUse" x="0" y="0" width="24" height="24">
<rect width="24" height="24" fill="#D9D9D9"/>
</mask>
<g mask="url(#mask0_1074_9237)">
<path d="M10.95 13.0655L9.32703 11.4577C9.18853 11.3192 9.01703 11.2484 8.81253 11.2452C8.60803 11.2421 8.42819 11.318 8.27303 11.473C8.12819 11.618 8.05578 11.7936 8.05578 12C8.05578 12.2063 8.12819 12.382 8.27303 12.527L10.3173 14.5712C10.4981 14.7519 10.709 14.8422 10.95 14.8422C11.191 14.8422 11.4019 14.7519 11.5828 14.5712L15.727 10.427C15.8757 10.2781 15.949 10.1041 15.947 9.90472C15.9452 9.70538 15.8719 9.52813 15.727 9.37297C15.5719 9.21797 15.3936 9.13788 15.1923 9.13272C14.9911 9.12755 14.8129 9.20255 14.6578 9.35772L10.95 13.0655ZM8.40978 21.1827L7.02703 18.8577L4.41153 18.296C4.18719 18.2525 4.00803 18.1346 3.87403 17.9422C3.74003 17.7499 3.68653 17.5416 3.71353 17.3172L3.96928 14.627L2.19053 12.5922C2.03669 12.4282 1.95978 12.2308 1.95978 12C1.95978 11.7691 2.03669 11.5717 2.19053 11.4077L3.96928 9.37297L3.71353 6.68272C3.68653 6.45838 3.74003 6.25005 3.87403 6.05772C4.00803 5.86538 4.18719 5.74747 4.41153 5.70397L7.02703 5.14222L8.40978 2.81722C8.53028 2.61988 8.69436 2.4853 8.90203 2.41347C9.10969 2.34163 9.32061 2.35255 9.53478 2.44622L12 3.48847L14.4653 2.44622C14.6794 2.35255 14.8904 2.34163 15.098 2.41347C15.3057 2.4853 15.4698 2.61988 15.5903 2.81722L16.973 5.14222L19.5885 5.70397C19.8129 5.74747 19.992 5.86538 20.126 6.05772C20.26 6.25005 20.3135 6.45838 20.2865 6.68272L20.0308 9.37297L21.8095 11.4077C21.9634 11.5717 22.0403 11.7691 22.0403 12C22.0403 12.2308 21.9634 12.4282 21.8095 12.5922L20.0308 14.627L20.2865 17.3172C20.3135 17.5416 20.26 17.7499 20.126 17.9422C19.992 18.1346 19.8129 18.2525 19.5885 18.296L16.973 18.8577L15.5903 21.1827C15.4698 21.3801 15.3057 21.5146 15.098 21.5865C14.8904 21.6583 14.6794 21.6474 14.4653 21.5537L12 20.5115L9.53478 21.5537C9.32061 21.6474 9.10969 21.6583 8.90203 21.5865C8.69436 21.5146 8.53028 21.3801 8.40978 21.1827ZM9.45003 19.95L12 18.8692L14.5808 19.95L16 17.55L18.75 16.9192L18.5 14.1L20.35 12L18.5 9.86922L18.75 7.04997L16 6.44997L14.55 4.04997L12 5.13072L9.41928 4.04997L8.00003 6.44997L5.25003 7.04997L5.50003 9.86922L3.65003 12L5.50003 14.1L5.25003 16.95L8.00003 17.55L9.45003 19.95Z" fill="url(#paint0_linear_1074_9237)"/>
</g>
<defs>
<linearGradient id="paint0_linear_1074_9237" x1="22.0403" y1="5.49751" x2="5.79434" y2="18.5263" gradientUnits="userSpaceOnUse">
<stop stop-color="#FCEE21"/>
<stop offset="0.974288" stop-color="#009245"/>
</linearGradient>
</defs>
</svg>
