<svg width="24" height="24" viewBox="0 0 24 24" fill="none" xmlns="http://www.w3.org/2000/svg">
<mask id="mask0_1074_9229" style="mask-type:alpha" maskUnits="userSpaceOnUse" x="0" y="0" width="24" height="24">
<rect width="24" height="24" fill="#D9D9D9"/>
</mask>
<g mask="url(#mask0_1074_9229)">
<path d="M18.751 8C17.9875 8 17.3382 7.73275 16.803 7.19825C16.2677 6.66375 16 6.01475 16 5.25125C16 4.48758 16.2673 3.83817 16.8018 3.303C17.3363 2.76767 17.9853 2.5 18.7488 2.5C19.5124 2.5 20.1618 2.76725 20.697 3.30175C21.2323 3.83625 21.5 4.48533 21.5 5.249C21.5 6.0125 21.2327 6.66183 20.6982 7.197C20.1637 7.73233 19.5147 8 18.751 8ZM12.0017 21.5C10.6877 21.5 9.45267 21.2507 8.2965 20.752C7.14033 20.2533 6.13467 19.5766 5.2795 18.7218C4.42433 17.8669 3.74725 16.8617 3.24825 15.706C2.74942 14.5503 2.5 13.3156 2.5 12.0017C2.5 10.6877 2.74942 9.45267 3.24825 8.2965C3.74692 7.14033 4.42375 6.13467 5.27875 5.2795C6.13375 4.42433 7.13917 3.74725 8.295 3.24825C9.45083 2.74942 10.6858 2.5 12 2.5C12.4538 2.5 12.9003 2.53333 13.3395 2.6C13.7785 2.66667 14.2134 2.7635 14.6443 2.8905C14.5061 3.10183 14.393 3.32867 14.305 3.571C14.217 3.8135 14.1512 4.05967 14.1077 4.3095C13.7616 4.2095 13.4144 4.13292 13.0663 4.07975C12.7183 4.02658 12.3628 4 12 4C9.76667 4 7.875 4.775 6.325 6.325C4.775 7.875 4 9.76667 4 12C4 14.2333 4.775 16.125 6.325 17.675C7.875 19.225 9.76667 20 12 20C14.2333 20 16.125 19.225 17.675 17.675C19.225 16.125 20 14.2333 20 12C20 11.6372 19.9734 11.2817 19.9202 10.9337C19.8671 10.5856 19.7905 10.2384 19.6905 9.89225C19.9403 9.84875 20.1861 9.7815 20.4277 9.6905C20.6694 9.59933 20.8967 9.48775 21.1095 9.35575C21.2365 9.78658 21.3333 10.2215 21.4 10.6605C21.4667 11.0997 21.5 11.5462 21.5 12C21.5 13.3142 21.2507 14.5492 20.752 15.705C20.2533 16.8608 19.5766 17.8663 18.7218 18.7213C17.8669 19.5763 16.8617 20.2531 15.706 20.7518C14.5503 21.2506 13.3156 21.5 12.0017 21.5ZM10.5655 16.2538L17.0922 9.727C16.8422 9.636 16.6067 9.526 16.3855 9.397C16.1642 9.26817 15.9523 9.11792 15.75 8.94625L10.5808 14.1155L7.73075 11.2963L6.677 12.35L10.5655 16.2538Z" fill="url(#paint0_linear_1074_9229)"/>
</g>
<defs>
<linearGradient id="paint0_linear_1074_9229" x1="21.5" y1="5.5875" x2="5.635" y2="17.795" gradientUnits="userSpaceOnUse">
<stop stop-color="#FCEE21"/>
<stop offset="0.974288" stop-color="#009245"/>
</linearGradient>
</defs>
</svg>
