<svg width="20" height="20" viewBox="0 0 20 20" fill="none" xmlns="http://www.w3.org/2000/svg">
<mask id="mask0_983_4800" style="mask-type:alpha" maskUnits="userSpaceOnUse" x="0" y="0" width="20" height="20">
<rect width="20" height="20" fill="#D9D9D9"/>
</mask>
<g mask="url(#mask0_983_4800)">
<path d="M4.42315 17.0833C4.00884 17.0833 3.65419 16.9358 3.35919 16.6408C3.06419 16.3458 2.91669 15.9912 2.91669 15.5769V4.42314C2.91669 4.00883 3.06419 3.65418 3.35919 3.35918C3.65419 3.06418 4.00884 2.91668 4.42315 2.91668H8.0946C8.21002 2.51071 8.44585 2.17418 8.8021 1.90709C9.15835 1.64001 9.55766 1.50647 10 1.50647C10.4595 1.50647 10.8652 1.64001 11.2171 1.90709C11.5692 2.17418 11.8029 2.51071 11.9184 2.91668H15.5769C15.9912 2.91668 16.3459 3.06418 16.6409 3.35918C16.9359 3.65418 17.0834 4.00883 17.0834 4.42314V7.99689C17.0834 8.17397 17.0234 8.32237 16.9036 8.44209C16.7837 8.56195 16.6352 8.62189 16.4581 8.62189C16.2809 8.62189 16.1325 8.56195 16.0129 8.44209C15.8932 8.32237 15.8334 8.17397 15.8334 7.99689V4.42314C15.8334 4.35897 15.8066 4.30022 15.7531 4.24689C15.6998 4.19341 15.6411 4.16668 15.5769 4.16668H13.75V5.59293C13.75 5.8064 13.6781 5.98529 13.5344 6.12959C13.3906 6.2739 13.2125 6.34605 13 6.34605H6.99981C6.78731 6.34605 6.60926 6.2739 6.46565 6.12959C6.3219 5.98529 6.25002 5.8064 6.25002 5.59293V4.16668H4.42315C4.35898 4.16668 4.30023 4.19341 4.2469 4.24689C4.19342 4.30022 4.16669 4.35897 4.16669 4.42314V15.5769C4.16669 15.6411 4.19342 15.6998 4.2469 15.7531C4.30023 15.8066 4.35898 15.8333 4.42315 15.8333H7.91669C8.09377 15.8333 8.24224 15.8933 8.3621 16.0131C8.48183 16.133 8.54169 16.2815 8.54169 16.4586C8.54169 16.6358 8.48183 16.7842 8.3621 16.9038C8.24224 17.0235 8.09377 17.0833 7.91669 17.0833H4.42315ZM10.0015 4.26293C10.2152 4.26293 10.394 4.19057 10.5377 4.04585C10.6813 3.90126 10.7531 3.72203 10.7531 3.50814C10.7531 3.29439 10.6809 3.11564 10.5363 2.97189C10.3917 2.82828 10.2125 2.75647 9.99856 2.75647C9.78481 2.75647 9.60606 2.82876 9.46231 2.97334C9.3187 3.11807 9.2469 3.2973 9.2469 3.51105C9.2469 3.7248 9.31919 3.90355 9.46377 4.0473C9.60835 4.19105 9.78759 4.26293 10.0015 4.26293ZM12.9488 16.25C12.0353 16.25 11.2567 15.9281 10.6129 15.2844C9.96933 14.6408 9.64752 13.8622 9.64752 12.9488C9.64752 12.0353 9.96933 11.2567 10.6129 10.6129C11.2567 9.96932 12.0353 9.64751 12.9488 9.64751C13.8622 9.64751 14.6408 9.96932 15.2844 10.6129C15.9281 11.2567 16.25 12.0353 16.25 12.9488C16.25 13.2832 16.202 13.6077 16.1059 13.9223C16.0096 14.2369 15.8686 14.5309 15.6827 14.8044L17.4775 16.5994C17.5929 16.7148 17.652 16.8598 17.6546 17.0344C17.6572 17.2091 17.5982 17.3568 17.4775 17.4775C17.3568 17.5982 17.2105 17.6572 17.0386 17.6546C16.8665 17.652 16.7201 17.5929 16.5994 17.4775L14.8044 15.6906C14.5256 15.8605 14.2309 15.9962 13.92 16.0977C13.6092 16.1992 13.2854 16.25 12.9488 16.25ZM12.9469 15C13.5208 15 14.0064 14.8019 14.4038 14.4056C14.8013 14.0094 15 13.5244 15 12.9506C15 12.3767 14.8019 11.8911 14.4056 11.4936C14.0094 11.0962 13.5244 10.8975 12.9506 10.8975C12.3768 10.8975 11.8911 11.0956 11.4936 11.4919C11.0962 11.888 10.8975 12.373 10.8975 12.9469C10.8975 13.5208 11.0956 14.0064 11.4919 14.4038C11.888 14.8013 12.373 15 12.9469 15Z" fill="#FA9C22"/>
</g>
</svg>
